LG_Stand_to_Walk04																		
version=1																		
nRows=79																		
nColumns=19																		
inDegrees=yes																		
endheader																		
time	ground_force2_vx	ground_force2_vy	ground_force2_vz	ground_force2_px	ground_force2_py	ground_force2_pz	ground_torque2_x	ground_torque2_y	ground_torque2_z	ground_force1_vx	ground_force1_vy	ground_force1_vz	ground_force1_px	ground_force1_py	ground_force1_pz	ground_torque1_x	ground_torque1_y	ground_torque1_z
3.137	-20.573629	416.241089	15.834074	0.192483	0	-0.35592	5.00E-06	-0.221839	4.00E-06	0	0	0	-0.13	0	0.305	0	0	0
3.138	-20.573629	418.12146	15.834154	0.192483	0	-0.355224	5.00E-06	-0.348021	7.00E-06	0	0	0	-0.13	0	0.305	0	0	0
3.139	-20.799965	419.495789	16.069103	0.192842	0	-0.355941	4.00E-06	-0.348021	4.00E-06	0	0	0	-0.13	0	0.305	0	0	0
3.14	-20.879982	422.078979	16.147596	0.192454	0	-0.355477	4.00E-06	-0.278988	3.00E-06	0	0	0	-0.13	0	0.305	0	0	0
3.141	-20.879982	423.969788	17.00927	0.192583	0	-0.35605	5.00E-06	-0.278988	3.00E-06	0	0	0	-0.13	0	0.305	0	0	0
3.142	-21.34853	426.033417	17.165894	0.192583	0	-0.355477	5.00E-06	-0.354573	9.00E-06	0	0	0	-0.13	0	0.305	0	0	0
3.143	-21.502789	430.516266	17.165894	0.192583	0	-0.355883	4.00E-06	-0.377682	9.00E-06	0	0	0	-0.13	0	0.305	0	0	0
3.144	-21.502789	432.060303	17.244143	0.192494	0	-0.355632	3.00E-06	-0.436817	-1.00E-06	0	0	0	-0.13	0	0.305	0	0	0
3.145	-21.654884	432.060303	17.557545	0.192494	0	-0.355883	3.00E-06	-0.436817	-1.00E-06	0	0	0	-0.13	0	0.305	0	0	0
3.146	-21.73057	434.631897	17.557224	0.192494	0	-0.355632	6.00E-06	-0.411231	6.00E-06	0	0	0	-0.13	0	0.305	0	0	0
3.147	-21.7349	436.720215	17.94928	0.192642	0	-0.355671	6.00E-06	-0.411231	6.00E-06	0	0	0	-0.13	0	0.305	0	0	0
3.148	-22.121267	439.646667	18.105778	0.192482	0	-0.355671	6.00E-06	-0.411231	6.00E-06	0	0	0	-0.13	0	0.305	0	0	0
3.149	-23.057644	441.694885	18.654173	0.193104	0	-0.355909	7.00E-06	-0.449526	4.00E-06	0	0	0	-0.13	0	0.305	0	0	0
3.15	-23.058365	444.458221	18.654173	0.19221	0	-0.355909	7.00E-06	-0.462009	4.00E-06	0	0	0	-0.13	0	0.305	0	0	0
3.151	-23.367605	444.469727	18.889246	0.192652	0	-0.355909	1.10E-05	-0.505871	4.00E-06	0	0	0	-0.13	0	0.305	0	0	0
3.152	-23.598993	448.758972	19.124237	0.192215	0	-0.355926	1.10E-05	-0.520572	4.00E-06	0	0	0	-0.13	0	0.305	0	0	0
3.153	-23.836153	451.342957	19.202488	0.192652	0	-0.355926	1.10E-05	-0.601051	7.00E-06	0	0	0	-0.13	0	0.305	0	0	0
3.154	-24.454632	456.340393	19.907501	0.192737	0	-0.355452	5.00E-06	-0.601051	2.00E-06	0	0	0	-0.13	0	0.305	0	0	0
3.155	-24.927509	458.240051	19.907501	0.192893	0	-0.355452	5.00E-06	-0.538311	3.00E-06	0	0	0	-0.13	0	0.305	0	0	0
3.156	-25.313156	462.366516	19.907501	0.192919	0	-0.356148	6.00E-06	-0.511302	2.00E-06	0	0	0	-0.13	0	0.305	0	0	0
3.157	-25.473188	463.563354	19.98543	0.192919	0	-0.35666	1.20E-05	-0.511302	3.00E-06	0	0	0	-0.13	0	0.305	0	0	0
3.158	-25.542379	465.969116	20.690805	0.192919	0	-0.35666	1.20E-05	-0.742453	3.00E-06	0	0	0	-0.13	0	0.305	0	0	0
3.159	-26.168797	470.632874	21.003845	0.192846	0	-0.356639	1.20E-05	-0.742453	3.00E-06	0	0	0	-0.13	0	0.305	0	0	0
3.16	-26.478035	472.514832	21.004128	0.192642	0	-0.356639	1.50E-05	-0.704537	3.00E-06	0	0	0	-0.13	0	0.305	0	0	0
3.161	-26.949471	475.600616	21.55216	0.192628	0	-0.356933	1.50E-05	-0.604452	5.00E-06	0	0	0	-0.13	0	0.305	0	0	0
3.162	-26.78944	478.870728	21.552284	0.192343	0	-0.357188	9.00E-06	-0.607893	5.00E-06	0	0	0	-0.13	0	0.305	0	0	0
3.163	-26.950191	479.727417	21.943813	0.192343	0	-0.357369	9.00E-06	-0.607893	3.00E-06	0	0	0	-0.13	0	0.305	0	0	0
3.164	-27.412247	485.072388	22.335588	0.192443	0	-0.35798	9.00E-06	-0.706226	1.00E-06	0	0	0	-0.13	0	0.305	0	0	0
3.165	-27.412247	487.984589	22.335588	0.192731	0	-0.357473	1.00E-05	-0.734356	3.00E-06	0	0	0	-0.13	0	0.305	0	0	0
3.166	-27.880795	490.240662	22.726677	0.192573	0	-0.358078	1.30E-05	-0.706226	7.00E-06	0	0	0	-0.13	0	0.305	0	0	0
3.167	-28.580011	492.635223	23.432175	0.192573	0	-0.357636	1.30E-05	-0.620718	7.00E-06	0	0	0	-0.13	0	0.305	0	0	0
3.168	-28.580011	493.150574	23.432175	0.192573	0	-0.357636	1.70E-05	-0.620718	7.00E-06	0	0	0	-0.13	0	0.305	0	0	0
3.169	-28.028561	497.298645	23.510384	0.192463	0	-0.357636	1.50E-05	-0.711349	6.00E-06	0	0	0	-0.13	0	0.305	0	0	0
3.17	-27.871414	501.077911	24.21524	0.192692	0	-0.357744	1.50E-05	-0.831687	6.00E-06	0	0	0	-0.13	0	0.305	0	0	0
3.171	-28.028561	504.17218	24.293652	0.192692	0	-0.357744	7.00E-06	-0.747037	6.00E-06	0	0	0	-0.13	0	0.305	0	0	0
3.172	-27.944937	507.289581	24.528481	0.192956	0	-0.357757	7.00E-06	-0.883494	4.00E-06	0	0	0	-0.13	0	0.305	0	0	0
3.173	-27.944937	512.270386	24.528481	0.192956	0	-0.357624	1.10E-05	-0.757465	4.00E-06	0	0	0	-0.13	0	0.305	0	0	0
3.174	-27.869251	512.951599	24.685143	0.192871	0	-0.357727	1.10E-05	-0.883494	5.00E-06	0	0	0	-0.13	0	0.305	0	0	0
3.175	-27.708496	518.470886	25.311625	0.1927	0	-0.357624	1.10E-05	-0.784937	6.00E-06	0	0	0	-0.13	0	0.305	0	0	0
3.176	-27.708496	519.846008	25.54706	0.192871	0	-0.357593	1.20E-05	-0.938016	6.00E-06	0	0	0	-0.13	0	0.305	0	0	0
3.177	-28.097752	522.255981	25.781889	0.192763	0	-0.357593	1.20E-05	-0.839765	3.00E-06	0	0	0	-0.13	0	0.305	0	0	0
3.178	-28.326973	528.615356	26.173422	0.193048	0	-0.358152	9.00E-06	-0.937197	0.00E+00	0	0	0	-0.13	0	0.305	0	0	0
3.179	-28.326973	530.007446	26.251553	0.192896	0	-0.358152	7.00E-06	-0.840712	1.00E-06	0	0	0	-0.13	0	0.305	0	0	0
3.18	-27.702002	534.99176	26.799946	0.193095	0	-0.357781	7.00E-06	-0.935076	1.00E-06	0	0	0	-0.13	0	0.305	0	0	0
3.181	-27.702002	537.577271	28.053396	0.193012	0	-0.357781	2.00E-06	-0.935076	5.00E-06	0	0	0	-0.13	0	0.305	0	0	0
3.182	-28.008354	539.302551	28.053396	0.193095	0	-0.357873	3.00E-06	-1.091964	6.00E-06	0	0	0	-0.13	0	0.305	0	0	0
3.183	-28.32048	543.603394	27.504759	0.193012	0	-0.358424	3.00E-06	-1.091964	5.00E-06	0	0	0	-0.13	0	0.305	0	0	0
3.184	-29.024025	547.715942	27.504759	0.193106	0	-0.358424	3.00E-06	-1.021329	2.00E-06	0	0	0	-0.13	0	0.305	0	0	0
3.185	-29.49041	550.66748	28.679878	0.192922	0	-0.358467	3.00E-06	-1.00452	2.00E-06	0	0	0	-0.13	0	0.305	0	0	0
3.186	-29.567539	554.095764	28.9932	0.193106	0	-0.35799	3.00E-06	-1.021329	4.00E-06	0	0	0	-0.13	0	0.305	0	0	0
3.187	-30.272528	556.688232	28.9932	0.193154	0	-0.35776	4.00E-06	-1.056669	5.00E-06	0	0	0	-0.13	0	0.305	0	0	0
3.188	-30.349657	560.991333	28.993441	0.193312	0	-0.35776	9.00E-06	-1.076148	9.00E-06	0	0	0	-0.13	0	0.305	0	0	0
3.189	-30.893169	563.412231	29.698416	0.193312	0	-0.358668	1.20E-05	-1.107819	6.00E-06	0	0	0	-0.13	0	0.305	0	0	0
3.19	-31.206017	564.758667	30.325304	0.192655	0	-0.358739	1.40E-05	-1.107819	6.00E-06	0	0	0	-0.13	0	0.305	0	0	0
3.191	-31.203854	567.520874	30.403311	0.192517	0	-0.358992	1.50E-05	-1.038985	6.00E-06	0	0	0	-0.13	0	0.305	0	0	0
3.192	-31.208904	568.894775	30.403353	0.192517	0	-0.358739	1.50E-05	-1.038985	1.00E-06	0	0	0	-0.13	0	0.305	0	0	0
3.193	-31.74881	573.549744	30.403353	0.192793	0	-0.358992	1.40E-05	-1.077837	9.00E-06	0	0	0	-0.13	0	0.305	0	0	0
3.194	-31.825218	577.171143	30.951786	0.192869	0	-0.358611	7.00E-06	-1.136686	8.00E-06	0	0	0	-0.13	0	0.305	0	0	0
3.195	-31.74881	579.05896	31.735252	0.193029	0	-0.358611	7.00E-06	-1.191333	8.00E-06	0	0	0	-0.13	0	0.305	0	0	0
3.196	-31.825218	582.511169	31.891914	0.192869	0	-0.358611	8.00E-06	-1.191333	8.00E-06	0	0	0	-0.13	0	0.305	0	0	0
3.197	-31.900181	584.743286	31.891914	0.192808	0	-0.358604	1.40E-05	-1.191333	4.00E-06	0	0	0	-0.13	0	0.305	0	0	0
3.198	-32.138062	587.500488	32.205112	0.192808	0	-0.358604	1.00E-05	-1.152563	6.00E-06	0	0	0	-0.13	0	0.305	0	0	0
3.199	-32.372337	591.290222	32.361736	0.19272	0	-0.358604	1.00E-05	-1.210606	4.00E-06	0	0	0	-0.13	0	0.305	0	0	0
3.2	-32.600121	593.172485	32.675301	0.192871	0	-0.35787	6.00E-06	-1.228606	1.00E-06	0	0	0	-0.13	0	0.305	0	0	0
3.201	-32.75943	596.80719	32.753349	0.192987	0	-0.358835	6.00E-06	-1.228606	1.00E-06	0	0	0	-0.13	0	0.305	0	0	0
3.202	-32.994423	599.551147	33.145081	0.192987	0	-0.358174	1.60E-05	-1.209343	2.00E-06	0	0	0	-0.13	0	0.305	0	0	0
3.203	-32.994423	601.790649	33.536613	0.193075	0	-0.358538	1.60E-05	-1.126214	5.00E-06	0	0	0	-0.13	0	0.305	0	0	0
3.204	-32.994423	605.754395	33.536613	0.19293	0	-0.358488	9.00E-06	-1.126214	5.00E-06	0	0	0	-0.13	0	0.305	0	0	0
3.205	-33.223648	607.470459	33.536613	0.193075	0	-0.358488	9.00E-06	-1.17389	9.00E-06	0	0	0	-0.13	0	0.305	0	0	0
3.206	-33.459366	610.405029	34.555435	0.193183	0	-0.358063	2.00E-05	-1.25982	6.00E-06	0	0	0	-0.13	0	0.305	0	0	0
3.207	-33.846455	613.321106	34.633522	0.193183	0	-0.358063	2.00E-05	-1.300797	6.00E-06	0	0	0	-0.13	0	0.305	0	0	0
3.208	-34.00288	615.231201	34.633522	0.192756	0	-0.35857	1.50E-05	-1.300797	5.00E-06	0	0	0	-0.13	0	0.305	0	0	0
3.209	-34.548561	617.616882	34.868553	0.192756	0	-0.358591	1.10E-05	-1.28952	5.00E-06	0	0	0	-0.13	0	0.305	0	0	0
3.21	-34.154251	621.59021	34.868553	0.192964	0	-0.358591	7.00E-06	-1.28952	1.00E-05	0	0	0	-0.13	0	0.305	0	0	0
3.211	-34.233543	621.958191	35.260166	0.193059	0	-0.35849	1.00E-06	-1.37543	1.20E-05	0	0	0	-0.13	0	0.305	0	0	0
3.212	-34.233543	622.278748	35.338497	0.192976	0	-0.35849	1.00E-06	-1.37543	1.00E-05	0	0	0	-0.13	0	0.305	0	0	0
3.213	-34.468544	627.619812	35.80864	0.19301	0	-0.358527	1.00E-06	-1.382411	7.00E-06	0	0	0	-0.13	0	0.305	0	0	0
3.214	-34.700653	628.301392	35.80864	0.19301	0	-0.358668	1.30E-05	-1.383749	6.00E-06	0	0	0	-0.13	0	0.305	0	0	0
3.215	-34.700653	631.051208	36.200253	0.19301	0	-0.35854	1.30E-05	-1.447404	6.00E-06	0	0	0	-0.13	0	0.305	0	0	0
